<svg xmlns="http://www.w3.org/2000/svg" viewBox="0 0 120 120">
  <circle cx="60" cy="60" r="58" fill="#000" stroke="#000" stroke-width="2"/>
  <circle cx="60" cy="60" r="52" fill="none" stroke="#fff" stroke-width="2"/>
  <path d="M60 8 L60 112" stroke="#fff" stroke-width="2"/>
  <path d="M8 60 L112 60" stroke="#fff" stroke-width="2"/>
  <path d="M60 8 A52 52 0 0 1 112 60 L60 60 Z" fill="#0066B1"/>
  <path d="M8 60 A52 52 0 0 1 60 8 L60 60 Z" fill="#fff"/>
  <path d="M60 112 A52 52 0 0 1 8 60 L60 60 Z" fill="#0066B1"/>
  <path d="M112 60 A52 52 0 0 1 60 112 L60 60 Z" fill="#fff"/>
  <text x="60" y="28" text-anchor="middle" font-family="Arial,sans-serif" font-weight="bold" font-size="11" fill="#fff">B M W</text>
</svg>
